<svg id="Camada_1" data-name="Camada 1" xmlns="http://www.w3.org/2000/svg" version="1.1"
    viewBox="0 0 250 129.4" width="512">
    <path class="cls-1"
        d="M96.4,79.8c1.2,1.8,3.8,5.7,4.3,6.6.5.9,1.4,2.3-1.2,2.6-2.6.3-6.1.8-7.5.5-1.6-.3-2.7-1-1.6-2.9.8-1.4,3.8-6,4.2-6.6.4-.6,1.1-1.4,1.9-.1M116.8,81.8c-.3,1.8-2.1,1.9-3.9,2-2.3-3-3.5-5.7-4.1-7.5.3-.8,1-2.8,1.4-3.8.4-1,1.5-.6,2.7-.4,8.2,1.4,16.7-4.4,23.7-5.6,2.6-.4,2,1.1,1.7,2.7-.3,1.6-2.5,9.6-4.2,13.7-1.4,3.3-4.2,4.4-7.6,5-4.1.7-5.1,3.4-7.2,4.4-.9-.6-1.9-1.8-2.3-2.6.4-1.4,1.7-1.4,3.2-2,2.7-.9,3.4-2.1,4.6-2.9,3.7-2.7,2.9-4.8.8-4.6-2,.2-5.8.2-7,0-1-.1-1.6-.1-1.9,1.6M17,56.8c-.8,1.1-.5,1.3-.5,2.5,0,1.6,1.7,1.9,2.9,4.3.6,1.3,1.1,2.1,2.6,2.5,1.5.4,5.3-.5,6.8-2.1,1.6-1.7.4-3.8,1.1-5.1,1.7-3.1,4.7-4.2,6-5.4,1.3-1.1,2.7-1.6,4.6-2,5.1-1.3,5.7-3.9,7.6-6.5,1.8-2.5,2.9-2.1,3.6-1.9,7.9,1.9,17.2,5.5,21.5,8.1,7.3,4.5,10.3,9.6,11.7,17.6-3.5,5.7-2,7.5-1.9,9.8.3,6.1-2.1,9.1-2.6,10.7-.6,1.5-.5,2.2.3,3.1.8.9,1.8,2.5,3,3.6,1.2,1.1,2.4.6,3.6.3,6.3-1.6,11.3-2.3,17.5-2.5,4.1-.2,7.9,3.9,9,5,1,1.1-.5,1.8-1.4,2.4-2.4,1.6-3.4,3.5-5.4,4.4-2,.9-3.9,1.5-4.9,3.6-.7,1.5.2,2.8,1,3.4-1,.6-3.2,2.3-4.3,3.3-1,.9-1.3,2.9.2,3.4,1.4.5,4,1.1,5.4,1.3,1.8.2,2-1,2.3-1.5,1.6-2.3,5-5.8,8-6.6,5.3-1.3,5.6-4.1,9-7.1,2-1.8,2.3-.3,4.7,1.7,4.7,3.8,4.9.7,9.1,3.3,6.9,4.3,7.2,1.6,6.8.5-.4-1.1-1.2-2.8-2.9-6.2-1.9-3.8-4.7-.6-7.2-2.7-1.9-1.7-3.3-4-3.3-4,3.4-3.6,4.2-1.7,10.9-2,6.2-.3,6.5-2.4,7.9-6.7,3.7-11.1,9.8-13.7,18.5-19.5,7.3-4.8,4.2-7.2,8.6-11.5,2.3-2.2,2.3-3.6,2.8-5.9.5-2.4.8-2.4,2.9-2.7,2.1-.3,10.3-1.2,14.4-4.8,4.5-3.9,4.6-2.3,9.9-2.1,17.2.8,27.8-11.2,28.1-17.4.2-3.4-1.6-4.1-3.4-2.5-1.8,1.7-7,5.6-15,6.4-10.7,1.1-14.5-1.7-17.8-1.1-6.5,1.2-6.2,4-9.8,9.5-2.1,3.2-14.9-2.3-16.7-3.2-8.1-4.1-17.2-9.6-32.4-7.2-17.6,2.7-30.7-.4-37.3-2.8-5.1-1.8-2.6-2.2-1.4-3.1,1.2-.9,4.9-3.5,4.1-5.1-1.1-2.4-14.3,4.8-16.4,2.2-1-1.2,9-6.1,6.7-9-2.4-2.9-5.5,3-13.7,5.3-4.6,1.3-6.2,1.9-6.8,1.1-1.2-1.5,1.2-2.6,0-3.7-1.6-1.4-6.1,1.9-9.9,3.6-4.1,1.8.3-4.9-6.9,0-5.3,3.6-8.9,4.1-12.8,4.1-2.6,0-1.6-.8-2-2.7-.4-1.8-1.4-7.2-2.7-8.1-2.7-1.7-3.1,4.2-3.9,8.5-.8,4.3-2.7,7.4-7.4,11.6-3.7,3.3-3.2,5.5-4.2,8.7-1.7,5.5-3.3,11.9-8.1,18.7" />
</svg>